Jackie.Brown.1997.720p.BRRip.x264.aac.mp4.anoXmous

Format                           : MPEG-4
Format profile                   : Base Media
Codec ID                         : isom
File size                        : 896 MiB
Duration                         : 2h 34mn
Overall bit rate mode            : Variable
Overall bit rate                 : 811 Kbps


Video
ID                               : 1
Format                           : AVC
Format/Info                      : Advanced Video Codec
Format profile                   : High@L4.1
Format settings, CABAC           : Yes
Format settings, ReFrames        : 4 frames
Codec ID                         : avc1
Codec ID/Info                    : Advanced Video Coding
Duration                         : 2h 34mn
Bit rate                         : 740 Kbps
Maximum bit rate                 : 2 682 Kbps
Width                            : 1 280 pixels
Height                           : 688 pixels
Display aspect ratio             : 1.850
Frame rate mode                  : Constant
Frame rate                       : 23.976 fps
Color space                      : YUV
Chroma subsampling               : 4:2:0
Bit depth                        : 8 bits
Scan type                        : Progressive
Bits/(Pixel*Frame)               : 0.035
Stream size                      : 817 MiB (91%)
Writing library                  : x264 core 120 r2120 0c7dab9


Audio
ID                               : 2
Format                           : AAC
Format/Info                      : Advanced Audio Codec
Format profile                   : LC
Codec ID                         : 40
Duration                         : 2h 34mn
Bit rate mode                    : Variable
Bit rate                         : 68.6 Kbps
Maximum bit rate                 : 98.7 Kbps
Channel(s)                       : 2 channels
Channel positions                : Front: L R
Sampling rate                    : 48.0 KHz 
Compression mode                 : Lossy
Stream size                      : 75.7 MiB (8%)
Language                         : English

                              SUB:
Jackie.Brown.1997.720p.BRRip.x264.aac.mp4.anoXmous_eng.srt
Jackie.Brown.1997.720p.BRRip.x264.aac.mp4.anoXmous_swe.srt

            http://www.imdb.com/title/tt0119396/

+++++++++ This work very fine with PSP and XBOX :) ++++++++++